<?xml version="1.0" encoding="UTF-8"?>
<svg version="1.1" xmlns="http://www.w3.org/2000/svg" width="3840" height="2160">
<path d="M0 0 C1.93174768 -0.00701808 3.86349511 -0.01410493 5.79524231 -0.02125549 C11.94292527 -0.04068569 18.09057069 -0.0456898 24.23828125 -0.046875 C25.28424469 -0.04731686 26.33020813 -0.04775871 27.40786743 -0.04821396 C57.34288481 -0.05485212 87.17798113 -0.01280241 116.99578857 2.94989014 C119.67762285 3.21569674 122.36040724 3.46992013 125.04345703 3.72314453 C219.28041602 12.73210116 312.6047786 33.77586631 699.97216797 244.32543945 C703.26741549 247.13362133 706.61056055 249.87003989 709.98828125 252.578125 C715.68143982 257.20589717 721.00120887 262.19703525 726.34765625 267.21484375 C728.68691217 269.40772754 731.05530484 271.55143873 733.48828125 273.640625 C746.2049075 284.65038153 758.08839345 296.58104125 769.96044922 308.48242188 C772.5714448 311.0988314 775.18781685 313.70978046 777.8046875 316.3203125 C779.49120653 318.00749157 781.17741574 319.69498042 782.86328125 321.3828125 C783.63317383 322.15068085 784.40306641 322.91854919 785.19628906 323.70968628 C789.28570307 327.81671349 793.2183844 332.00276999 796.99002075 336.4042511 C799.70394539 339.53221866 802.57746762 342.51056015 805.42578125 345.515625 C810.34245133 350.73914002 814.9977383 356.0554169 819.4765625 361.66015625 C821.59165721 364.25323847 823.79596221 366.730974 826.05078125 369.203125 C830.7554614 374.37827316 835.15514468 379.7651534 839.55078125 385.203125 C840.56160892 386.43432587 841.57338174 387.66475118 842.5859375 388.89453125 C849.61553578 397.45161127 856.39500214 406.15634039 862.97216797 415.06542969 C864.64116168 417.32551459 866.31650674 419.58080699 867.9921875 421.8359375 C891.66421226 453.75320093 913.60668592 486.82778334 933.55078125 521.203125 C934.04255859 522.04633301 934.53433594 522.88954102 935.04101562 523.75830078 C955.84379966 559.4688209 974.14786687 596.28754889 990.55078125 634.203125 C990.85089111 634.89529114 991.15100098 635.58745728 991.46020508 636.30059814 C999.57284377 655.02374961 1007.03858442 673.92052043 1013.83001709 693.16772461 C1014.56962831 695.2563481 1015.3164925 697.3422627 1016.06494141 699.42773438 C1030.66782123 740.19299802 1042.28351489 781.9125274 1051.55078125 824.203125 C1051.73062561 825.02327087 1051.91046997 825.84341675 1052.09576416 826.68841553 C1062.86278121 876.04810529 1069.82291231 926.29695589 1073.16796875 976.703125 C1073.23264973 977.67657364 1073.2973307 978.65002228 1073.36397171 979.65296936 C1074.7097252 1000.3977488 1075.01559944 1021.09727473 1074.94189453 1041.88037109 C1074.92480448 1046.73262274 1074.93500924 1051.58438006 1074.9522171 1056.43661499 C1075.05908007 1092.10958504 1073.38472543 1127.74946023 1069.30078125 1163.203125 C1069.19817993 1164.11818817 1069.09557861 1165.03325134 1068.98986816 1165.9760437 C1058.44430033 1259.63879699 1035.62462899 1351.91784302 830.43066406 1721.62231445 C827.60332173 1724.94067259 824.84430419 1728.30528138 822.11328125 1731.703125 C818.24687958 1736.4580355 814.16549257 1740.96974145 809.97485352 1745.4375 C807.36611224 1748.22015736 804.81239032 1751.03636091 802.31494141 1753.91967773 C790.6516837 1767.27199493 778.09439378 1779.8220035 765.54785156 1792.33642578 C763.02160096 1794.85724252 760.50083981 1797.38346238 757.98046875 1799.91015625 C756.34797731 1801.54198792 754.71517624 1803.17350991 753.08203125 1804.8046875 C752.34231079 1805.54643219 751.60259033 1806.28817688 750.8404541 1807.05239868 C746.80071344 1811.07416733 742.67438306 1814.93334372 738.34875488 1818.646698 C735.34072466 1821.25061798 732.4526449 1823.98221749 729.55078125 1826.703125 C724.62542423 1831.29531902 719.66351591 1835.81946261 714.55078125 1840.203125 C713.516659 1841.10255645 712.48283272 1842.00232824 711.44921875 1842.90234375 C705.00930529 1848.48912574 698.47478666 1853.90066638 691.73632812 1859.12353516 C687.70793377 1862.25760792 683.79814573 1865.50382408 679.92578125 1868.828125 C673.99873267 1873.90007149 667.83125312 1878.57500627 661.55078125 1883.203125 C660.32432948 1884.12471877 659.09912798 1885.04797808 657.875 1885.97265625 C641.02744001 1898.69868293 623.86273275 1910.79009769 606.23876953 1922.42138672 C603.94655311 1923.94078685 601.66477242 1925.47329298 599.390625 1927.01953125 C590.10838949 1933.32281676 580.54276349 1939.09605467 570.89013672 1944.81298828 C568.81396757 1946.04672937 566.74471334 1947.2906971 564.6796875 1948.54296875 C526.40327139 1971.75418673 486.58598611 1992.33175893 445.55078125 2010.203125 C444.86582581 2010.50176453 444.18087036 2010.80040405 443.47515869 2011.10809326 C365.5818774 2044.99694979 283.25310432 2069.31478745 121.27697754 2092.94598389 C118.69763712 2093.18927322 116.11981006 2093.44475799 113.54199219 2093.70361328 C55.46335284 2099.42629914 -5.82169594 2099.20500083 -63.88708496 2093.45635986 C-66.57279513 2093.19091102 -69.25942441 2092.93658438 -71.94628906 2092.68310547 C-166.18143306 2083.67476091 -259.50510244 2062.62965494 -483.44921875 1965.203125 C-484.46693359 1964.62981445 -485.48464844 1964.05650391 -486.53320312 1963.46582031 C-502.44289869 1954.46644541 -518.02454285 1945.00776253 -533.44921875 1935.203125 C-534.34326416 1934.63851563 -535.23730957 1934.07390625 -536.15844727 1933.4921875 C-543.00749028 1929.15783115 -549.77182359 1924.70501275 -556.51171875 1920.203125 C-557.52298828 1919.53023437 -558.53425781 1918.85734375 -559.57617188 1918.1640625 C-576.63642492 1906.7832369 -593.26456673 1894.79577517 -609.44921875 1882.203125 C-611.01948164 1881.00579955 -612.58975343 1879.8084852 -614.16088867 1878.61230469 C-625.32390234 1870.09320748 -636.18657847 1861.19421277 -646.86938477 1852.08178711 C-650.16509356 1849.27334571 -653.5085917 1846.5365359 -656.88671875 1843.828125 C-662.56552858 1839.21201642 -667.87247807 1834.23392706 -673.20703125 1829.23046875 C-677.71005963 1825.01001907 -682.2946387 1820.90674644 -687.13671875 1817.078125 C-689.76567809 1814.94653634 -692.06786143 1812.60823291 -694.44921875 1810.203125 C-695.97798199 1808.67890852 -697.50712596 1807.15507384 -699.03662109 1805.6315918 C-703.39276486 1801.29146271 -707.74668972 1796.94911966 -712.09900475 1792.60515118 C-714.72125191 1789.98811765 -717.34442655 1787.37202794 -719.96972656 1784.75805664 C-722.52591525 1782.21282046 -725.07957453 1779.66507055 -727.63158035 1777.11564064 C-729.06048442 1775.68944512 -730.49192486 1774.26579221 -731.9234314 1772.84220886 C-736.43538283 1768.33064283 -740.82519577 1763.77754469 -744.96832275 1758.92337036 C-747.49219963 1755.99157266 -750.17010511 1753.20401796 -752.82421875 1750.390625 C-757.54794984 1745.34746682 -762.01756166 1740.17621524 -766.33984375 1734.78125 C-768.46907021 1732.1788621 -770.68371232 1729.68736998 -772.94921875 1727.203125 C-777.6538989 1722.02797684 -782.05358218 1716.6410966 -786.44921875 1711.203125 C-787.46004642 1709.97192413 -788.47181924 1708.74149882 -789.484375 1707.51171875 C-796.51738627 1698.95048411 -803.29933726 1690.2412575 -809.87939453 1681.32763672 C-811.52083869 1679.1061986 -813.17022546 1676.89080536 -814.8203125 1674.67578125 C-843.20869736 1636.47550408 -869.40636841 1596.48704966 -892.12402344 1554.64306641 C-893.07984783 1552.88320844 -894.03927947 1551.12530798 -895.00097656 1549.36865234 C-910.57973631 1520.90448694 -924.57267379 1491.96744671 -937.44921875 1462.203125 C-937.74932861 1461.51095886 -938.04943848 1460.81879272 -938.35864258 1460.10565186 C-946.47128127 1441.38250039 -953.93702192 1422.48572957 -960.72845459 1403.23852539 C-961.46806581 1401.1499019 -962.21493 1399.0639873 -962.96337891 1396.97851562 C-990.01290043 1321.46849363 -1007.26803799 1242.85701956 -1016.19921875 1163.203125 C-1016.29440796 1162.37676544 -1016.38959717 1161.55040588 -1016.4876709 1160.69900513 C-1020.53343898 1125.10150604 -1021.9673088 1089.33051089 -1021.84033203 1053.52587891 C-1021.82324199 1048.67362981 -1021.83344671 1043.82187503 -1021.8506546 1038.96964264 C-1021.91297478 1018.16588145 -1021.44588975 997.46435033 -1020.06640625 976.703125 C-1020.004958 975.77717026 -1019.94350975 974.85121552 -1019.88019943 973.89720154 C-1013.45315978 879.19936262 -993.49009806 785.84519779 -890.95898438 539.85546875 C-889.03912184 536.48267015 -887.18890038 533.07479373 -885.3425293 529.66137695 C-875.59260203 511.65146728 -864.72986007 494.28869883 -853.44921875 477.203125 C-852.65330322 475.99390381 -852.65330322 475.99390381 -851.84130859 474.76025391 C-828.9333663 439.99859125 -804.35252609 406.46628687 -777.3269043 374.78173828 C-774.51872242 371.48649076 -771.78230386 368.1433457 -769.07421875 364.765625 C-764.99830773 359.75137476 -760.66069081 355.02270213 -756.22900391 350.32446289 C-753.48296015 347.41133182 -750.79070002 344.46758152 -748.16870117 341.44189453 C-736.85165984 328.48063407 -724.69883807 316.29135483 -712.52172852 304.14526367 C-709.98661199 301.61557196 -707.45697238 299.08048967 -704.92773438 296.54492188 C-703.29068558 294.90853298 -701.65332709 293.27245383 -700.015625 291.63671875 C-699.27276749 290.89183701 -698.52990997 290.14695526 -697.76454163 289.37950134 C-693.71988991 285.35276189 -689.59017218 281.48817983 -685.25701904 277.77281189 C-682.1268746 275.05495267 -679.14485656 272.1793513 -676.13671875 269.328125 C-670.91320373 264.41145492 -665.59692685 259.75616795 -659.9921875 255.27734375 C-657.39910528 253.16224904 -654.92136975 250.95794404 -652.44921875 248.703125 C-647.27407059 243.99844485 -641.88719035 239.59876157 -636.44921875 235.203125 C-635.21801788 234.19229733 -633.98759257 233.18052451 -632.7578125 232.16796875 C-624.19657786 225.13495748 -615.48735125 218.35300649 -606.57373047 211.77294922 C-604.35229235 210.13150506 -602.13689911 208.48211829 -599.921875 206.83203125 C-534.03774456 157.87050035 -462.76036508 116.78399047 -387.44921875 84.203125 C-386.75705261 83.90301514 -386.06488647 83.60290527 -385.35174561 83.29370117 C-366.60145693 75.16930407 -347.67494564 67.70262696 -328.40197754 60.89526367 C-326.43376509 60.19764758 -324.46808669 59.49328282 -322.50292969 58.78710938 C-234.91591077 27.36551491 -142.94160833 8.82318282 -41.80438232 1.40315247 C-39.41589808 1.26075629 -37.02784387 1.1110667 -34.64012146 0.9564209 C-23.08807833 0.23322265 -11.57252558 0.02604213 0 0 Z " fill="#E3F222" transform="translate(1893.44921875,31.796875)"/>
<path d="M0 0 C3.43654237 -0.29519704 5.3650111 -0.43434639 8.26217651 1.54737854 C9.32518478 2.63489662 9.32518478 2.63489662 10.40966797 3.74438477 C11.63156326 4.97180138 11.63156326 4.97180138 12.87814331 6.22401428 C13.74077789 7.12075363 14.60341248 8.01749298 15.4921875 8.94140625 C16.87503232 10.34085148 18.2578789 11.74029498 19.64082527 13.13963985 C21.57499997 15.10457207 23.49487828 17.08320718 25.4152832 19.06158447 C28.29313661 22.02066179 31.18958771 24.96150566 34.08558846 27.90280819 C36.34450942 30.19714218 38.59883397 32.49551523 40.84396362 34.80335999 C45.08677396 39.14665424 49.39362827 43.28385103 54.00296021 47.23399353 C57.84965519 50.63567248 61.42076717 54.32018229 65.03125 57.96875 C66.28427917 59.22745911 66.28427917 59.22745911 67.56262207 60.51159668 C71.10336129 64.0685452 74.63807324 67.6314612 78.17333984 71.19384766 C80.7697206 73.80840164 83.36916566 76.41988184 85.96875 79.03125 C86.75544067 79.82623901 87.54213135 80.62122803 88.35266113 81.44030762 C91.81021536 84.91300146 95.28534776 88.30222078 99 91.5 C103.57029447 95.43436363 107.79134191 99.6841176 112.03125 103.96875 C113.28427917 105.22745911 113.28427917 105.22745911 114.56262207 106.51159668 C118.10336129 110.0685452 121.63807324 113.6314612 125.17333984 117.19384766 C127.7697206 119.80840164 130.36916566 122.41988184 132.96875 125.03125 C134.14878601 126.22373352 134.14878601 126.22373352 135.35266113 127.44030762 C139.47905645 131.5847712 143.69294802 135.53549454 148.12518311 139.35003662 C151.08668633 141.95635614 153.84994682 144.74515891 156.6171875 147.5546875 C157.49203293 148.43521286 157.49203293 148.43521286 158.384552 149.33352661 C160.21719813 151.17822821 162.04650295 153.02618631 163.875 154.875 C166.30703186 157.33359071 168.74234477 159.78886303 171.1796875 162.2421875 C171.73486053 162.80565887 172.29003357 163.36913025 172.86203003 163.94967651 C175.65723675 166.83413106 175.65723675 166.83413106 179 169 C179.16506917 179.95142232 178.73707436 190.71920035 177.75 201.625 C177.65212692 202.74004913 177.65212692 202.74004913 177.55227661 203.87762451 C174.31735848 240.56539048 174.31735848 240.56539048 170.42651367 257.09912109 C169.83954932 259.71509386 169.50943687 262.33959863 169.1875 265 C167.1115901 280.05443321 163.99421187 295.01666048 159.88671875 309.64453125 C158.99475369 313.01985277 158.32171887 316.38003057 157.6875 319.8125 C152.33599668 347.55888132 142.91899191 374.57370922 133.91445923 401.30595398 C132.21354477 406.35557586 130.53538106 411.41247209 128.86914062 416.47363281 C127.73908113 419.75842373 126.44805007 422.96327806 125.12890625 426.17578125 C123.98085779 429.04788865 122.9041556 431.93961868 121.83520508 434.84179688 C119.51264464 441.14096236 117.05158709 447.29636604 114.20703125 453.3828125 C111.34856845 459.58077391 108.83804702 465.9355282 106.26953125 472.2578125 C105.96644043 473.0007959 105.66334961 473.7437793 105.35107422 474.50927734 C104.76001499 475.95896778 104.17161787 477.40974768 103.58642578 478.86181641 C101.91237812 482.96571361 100.07703543 486.93368988 98.06518555 490.88232422 C96.91501841 493.16895033 95.81889072 495.47633168 94.73046875 497.79296875 C83.46703027 521.72386304 71.28251493 545.12614552 58 568 C57.47196777 568.91297852 56.94393555 569.82595703 56.39990234 570.76660156 C31.28633187 614.09533239 2.72043951 655.50799722 -28.97265625 694.28515625 C-31.36289882 697.21097796 -33.72077973 700.16011924 -36.0625 703.125 C-43.37493884 712.28868918 -51.12245422 721.10578885 -59 729.78515625 C-60.79603529 731.77412502 -62.55953303 733.78563194 -64.3125 735.8125 C-68.85669298 741.02068465 -73.56063442 746.08136556 -78.26953125 751.14013672 C-79.43766122 752.39561275 -80.60429357 753.65248364 -81.76953125 754.91064453 C-90.01838447 763.81083921 -98.43152515 772.53170208 -107 781.125 C-107.87197021 782.0015625 -108.74394043 782.878125 -109.64233398 783.78125 C-114.07271834 788.20100994 -118.57372178 792.46036638 -123.3203125 796.53857422 C-125.31106219 798.27064219 -127.16750751 800.10206135 -129 802 C-132.1498003 805.19261312 -135.41219489 808.17161279 -138.8125 811.09375 C-141.35511399 813.30945648 -143.83110198 815.59098592 -146.3125 817.875 C-150.85040518 822.01803222 -155.53144035 825.92380414 -160.3125 829.78125 C-162.9669962 831.97275268 -165.52000885 834.24247683 -168.0625 836.5625 C-171.99517133 840.13765575 -176.03235465 843.50891266 -180.20703125 846.796875 C-182.23737335 848.39843157 -184.2540487 850.01117784 -186.26171875 851.640625 C-195.82082262 859.38322191 -205.607183 866.79722186 -215.484375 874.12841797 C-217.88146589 875.91181265 -220.26972827 877.70640487 -222.65625 879.50390625 C-234.25646558 888.19913167 -246.222608 896.27273416 -258.33251953 904.23876953 C-260.60445438 905.73883708 -262.86653882 907.25134987 -265.12109375 908.77734375 C-283.22606621 921.03017939 -302.06569034 932.08930332 -321 943 C-321.7130127 943.41121094 -322.42602539 943.82242188 -323.16064453 944.24609375 C-326.01953848 945.8927229 -328.88348317 947.52979179 -331.75390625 949.15625 C-334.04148399 950.45557213 -336.31835921 951.76705293 -338.58984375 953.09375 C-348.29148777 958.71390938 -358.28269494 963.57690528 -368.421875 968.35546875 C-373.23478861 970.62513921 -378.00214891 972.97270315 -382.75 975.375 C-387.9891419 978.02161083 -393.2700716 980.53489834 -398.6328125 982.921875 C-400.75301992 983.88751402 -402.81105363 984.9209243 -404.875 986 C-409.30046477 988.25329164 -413.93410876 989.90425629 -418.578125 991.6484375 C-421.93735937 992.97525838 -425.17648149 994.44902778 -428.4375 996 C-434.11338052 998.67665466 -439.87833029 1000.80403741 -445.8046875 1002.85546875 C-448.40056526 1003.78528805 -450.87520047 1004.78264965 -453.375 1005.9375 C-465.98429484 1011.743052 -479.36207371 1015.84537627 -492.5625 1020.0625 C-494.93091486 1020.82277698 -497.29896922 1021.58416601 -499.66690063 1022.34594727 C-501.21729183 1022.84463798 -502.76788821 1023.34269129 -504.31869507 1023.84008789 C-509.19858084 1025.40821877 -514.06121936 1027.02198514 -518.91796875 1028.66015625 C-525.15098279 1030.74586179 -531.41350454 1032.63146828 -537.75 1034.375 C-538.79857178 1034.66536133 -539.84714355 1034.95572266 -540.92749023 1035.25488281 C-576.37408333 1045.01193157 -576.37408333 1045.01193157 -590.765625 1047.39453125 C-594.25936623 1048.04855286 -597.58366298 1049.02128543 -601 1050 C-603.98844553 1050.68464506 -606.99175279 1051.28415324 -610 1051.875 C-611.31303101 1052.13325562 -611.31303101 1052.13325562 -612.65258789 1052.39672852 C-615.43375867 1052.93818886 -618.21645347 1053.47089611 -621 1054 C-621.85062012 1054.16258301 -622.70124023 1054.32516602 -623.57763672 1054.49267578 C-648.75220854 1059.24341567 -674.23338997 1062.57785421 -699.75 1064.8125 C-700.45104858 1064.8757547 -701.15209717 1064.9390094 -701.87438965 1065.00418091 C-705.24314568 1065.30348767 -708.60498488 1065.55927561 -711.98266602 1065.73266602 C-714.75430223 1065.8782788 -717.41920806 1066.21567761 -720.15600586 1066.67163086 C-725.63972234 1067.39651753 -730.39448358 1067.62236917 -735.23358154 1064.60922241 C-741.0983896 1059.9801662 -746.05120874 1054.4520262 -751.0625 1048.9375 C-752.59935101 1047.30661232 -754.14034445 1045.67961786 -755.68554688 1044.05664062 C-757.87027658 1041.76087582 -760.04789383 1039.46189266 -762.19337463 1037.12937927 C-765.92662004 1033.07822986 -769.7773134 1029.37299445 -773.96238708 1025.79298401 C-777.67575207 1022.52543304 -781.11709415 1018.98423853 -784.59375 1015.46875 C-785.38471069 1014.67400269 -786.17567139 1013.87925537 -786.99060059 1013.0604248 C-790.34018573 1009.69464452 -793.6837327 1006.32288952 -797.02783203 1002.95166016 C-799.48520939 1000.47609773 -801.94566058 998.00361917 -804.40625 995.53125 C-805.52066467 994.40438782 -805.52066467 994.40438782 -806.65759277 993.25476074 C-810.01351441 989.88332083 -813.39558501 986.60577439 -817 983.5 C-821.41295842 979.69753739 -825.49934226 975.60889043 -829.59375 971.46875 C-830.38471069 970.67400269 -831.17567139 969.87925537 -831.99060059 969.0604248 C-835.34018573 965.69464452 -838.6837327 962.32288952 -842.02783203 958.95166016 C-844.48520939 956.47609773 -846.94566058 954.00361917 -849.40625 951.53125 C-850.14919312 950.78000854 -850.89213623 950.02876709 -851.65759277 949.25476074 C-855.00685003 945.89001603 -858.38137953 942.61858911 -861.97973633 939.52026367 C-866.51513772 935.61224892 -870.70905175 931.39856031 -874.91796875 927.14453125 C-875.73824051 926.32047287 -876.55851227 925.49641449 -877.40364075 924.64738464 C-880.00071808 922.0381861 -882.5945104 919.42576052 -885.1875 916.8125 C-888.61558762 913.3577766 -892.04699992 909.90640566 -895.48046875 906.45703125 C-896.2607695 905.66843216 -897.04107025 904.87983307 -897.84501648 904.06733704 C-898.94690056 902.96049812 -898.94690056 902.96049812 -900.07104492 901.83129883 C-901.09166519 900.80463608 -901.09166519 900.80463608 -902.13290405 899.75723267 C-904.09526505 897.82182823 -904.09526505 897.82182823 -907.0324707 895.90893555 C-909 894 -909 894 -909.3125 890.25 C-909.1578125 888.64125 -909.1578125 888.64125 -909 887 C-908.19933105 886.96036133 -907.39866211 886.92072266 -906.57373047 886.87988281 C-889.65032265 886.01446769 -872.79312098 884.81772386 -855.9375 883.0625 C-855.15542175 882.98318237 -854.37334351 882.90386475 -853.56756592 882.82214355 C-844.13351467 881.85766687 -834.87075592 880.54268006 -825.57128906 878.67529297 C-821.99289508 877.99865653 -818.4270931 877.50124441 -814.8125 877.0625 C-808.49471456 876.26184349 -802.25664653 875.18612761 -796 874 C-795.11546143 873.8337915 -794.23092285 873.66758301 -793.31958008 873.49633789 C-788.45798789 872.5572769 -783.76125667 871.36990543 -779 870 C-776.52605234 869.51428428 -774.04635654 869.05719612 -771.5625 868.625 C-754.76493521 865.57195666 -738.40625356 860.66102508 -722 856 C-720.9071167 855.69118896 -719.8142334 855.38237793 -718.68823242 855.06420898 C-710.32316261 852.69092444 -701.98971267 850.22292419 -693.66870117 847.70043945 C-691.56824165 847.06423907 -689.46676904 846.43146666 -687.36523438 845.79882812 C-669.94601838 840.56190052 -669.94601838 840.56190052 -653 834 C-650.6123654 833.18393966 -648.21611565 832.39271432 -645.8125 831.625 C-640.29848157 829.82566033 -634.96048951 827.80784311 -629.62890625 825.515625 C-623.64627093 823.01695707 -617.58762423 820.70938484 -611.53515625 818.38574219 C-605.75269863 816.14603001 -600.09264646 813.72847336 -594.46264648 811.12939453 C-591.44138119 809.74381178 -588.38195485 808.46226732 -585.3125 807.1875 C-579.44507896 804.69208647 -573.77094403 801.92425865 -568.09399414 799.02539062 C-563.54815271 796.72226589 -558.9472507 794.65989782 -554.25 792.6875 C-546.04819876 789.21507032 -538.36444637 784.90327775 -530.6015625 780.5546875 C-527.15259462 778.62532126 -523.67890981 776.79336674 -520.125 775.0625 C-464.34887318 747.60348372 -411.58396843 710.78185773 -363.64404297 671.34423828 C-361.40809459 669.51603339 -359.1420617 667.72689878 -356.875 665.9375 C-351.05474344 661.29492077 -345.43986792 656.41607783 -339.80566406 651.55126953 C-338.06332064 650.05439959 -336.311228 648.57001252 -334.5546875 647.08984375 C-326.08723228 639.93761585 -317.98418889 632.45176493 -309.94091797 624.82763672 C-308.16231065 623.15283743 -306.36950218 621.49600692 -304.56640625 619.84765625 C-295.99315736 611.99160322 -287.72980991 603.83749694 -279.5 595.625 C-278.93315491 595.0607431 -278.36630981 594.49648621 -277.7822876 593.91513062 C-272.13504724 588.28825413 -266.54930276 582.65464353 -261.36914062 576.58740234 C-259.67399873 574.6220292 -257.86658553 572.80222051 -256 571 C-252.80738688 567.8501997 -249.82838721 564.58780511 -246.90625 561.1875 C-244.69054352 558.64488601 -242.40901408 556.16889802 -240.125 553.6875 C-236.07478708 549.24749216 -232.24465878 544.68065719 -228.47265625 540.00390625 C-225.59116367 536.50332522 -222.61255438 533.09742675 -219.625 529.6875 C-214.01484954 523.25910123 -208.68532266 516.66119241 -203.47607422 509.90576172 C-201.88128521 507.84672715 -200.27187709 505.7997111 -198.66015625 503.75390625 C-191.0507394 494.07410891 -183.73246473 484.22460306 -176.58251953 474.20166016 C-175.06014378 472.08367427 -173.51721048 469.98279002 -171.96484375 467.88671875 C-147.73678419 435.05401309 -126.70987612 399.67954552 -107 364 C-106.54028809 363.17540283 -106.08057617 362.35080566 -105.60693359 361.5012207 C-102.03663434 355.04316255 -98.7644303 348.48921203 -95.625 341.8125 C-92.40913969 335.02170048 -89.15654444 328.259697 -85.75 321.5625 C-82.75384802 315.65580038 -80.04140287 309.65894679 -77.43261719 303.57202148 C-75.90454983 300.01808068 -74.29980987 296.54874256 -72.5 293.125 C-69.76693104 287.81169817 -67.71470256 282.25464814 -65.5925293 276.67773438 C-63.96560935 272.41990836 -62.25840822 268.25032543 -60.3125 264.125 C-58.1573839 259.526951 -56.57389389 254.85563029 -55.02734375 250.0234375 C-54.00222093 247.00653613 -52.82163602 244.11371641 -51.5625 241.1875 C-48.87883024 234.88456918 -46.73157711 228.4356255 -44.625 221.92333984 C-43.60223079 218.7759274 -42.54947606 215.63858934 -41.5 212.5 C-41.08878906 211.2625 -40.67757812 210.025 -40.25390625 208.75 C-39.41691536 206.24684966 -38.57052571 203.74682273 -37.71484375 201.25 C-34.98439906 193.23401559 -32.64740515 185.19181752 -30.52685547 176.99511719 C-29.78148413 174.17251545 -28.98751925 171.36430256 -28.19482422 168.5546875 C-24.37317101 155.00331179 -20.92383995 141.35118827 -17.8203125 127.6171875 C-17.14039647 124.61908158 -16.44462677 121.62567969 -15.7421875 118.6328125 C-15.28632955 116.67190493 -14.83060119 114.71096724 -14.375 112.75 C-14.15650391 111.82654785 -13.93800781 110.9030957 -13.71289062 109.95166016 C-12.59120287 105.09013962 -11.70218723 100.35104365 -11.33056641 95.37207031 C-11 93 -11 93 -10.06005859 89.39501953 C-8.78399766 84.43213735 -8.17428355 79.43268714 -7.5625 74.3515625 C-7.43689697 73.34016205 -7.31129395 72.3287616 -7.18188477 71.28671265 C-6.78329556 68.06669282 -6.39166839 64.84586811 -6 61.625 C-5.73740828 59.50124898 -5.47439099 57.37755054 -5.2109375 55.25390625 C-2.15207884 31.87292082 -2.15207884 31.87292082 -0.375 8.375 C-0.33632812 7.55 -0.29765625 6.725 -0.2578125 5.875 C-0.16673803 3.91689884 -0.08250806 1.95848082 0 0 Z " fill="#000000" transform="translate(2125,472)"/>
<path d="M0 0 C1.45065921 -0.04596165 1.45065921 -0.04596165 2.93062466 -0.09285182 C3.99573972 -0.11139808 5.06085477 -0.12994435 6.15824604 -0.14905262 C7.85322498 -0.19523148 7.85322498 -0.19523148 9.58244592 -0.24234325 C13.3904883 -0.34137942 17.19863615 -0.41825681 21.00719929 -0.49446583 C23.0371036 -0.54155003 25.06694853 -0.5907874 27.09679844 -0.64015605 C52.79088395 -1.26156164 78.49264927 -1.58019193 104.19263458 -1.83800507 C107.54928657 -1.87228277 110.90593117 -1.90720131 114.26257038 -1.94270802 C115.09672544 -1.95150393 115.9308805 -1.96029984 116.79031298 -1.9693623 C130.21414765 -2.11522526 143.63038232 -2.41124932 157.05009826 -2.7676424 C170.8814786 -3.13185329 184.70897097 -3.33879106 198.54501802 -3.40467483 C206.29466797 -3.44571439 214.03013578 -3.55322068 221.77492046 -3.84002209 C274.27412815 -5.72578835 274.27412815 -5.72578835 294.11305624 12.24326462 C302.51051809 20.38210008 310.00320321 29.30372712 316.88570577 38.74880761 C318.394483 40.73526118 318.394483 40.73526118 321.32287312 42.48087597 C321.32287312 43.14087597 321.32287312 43.80087597 321.32287312 44.48087597 C321.89875675 44.73111523 322.47464039 44.98135448 323.06797504 45.23917675 C325.6358288 46.65321051 327.33998329 48.26461239 329.40124226 50.34806347 C330.19208714 51.1422871 330.98293201 51.93651073 331.79774189 52.75480175 C332.64263676 53.61315624 333.48753162 54.47151073 334.35802937 55.35587597 C335.23309635 56.23614452 336.10816334 57.11641308 337.00974751 58.02335644 C339.33174126 60.36014672 341.64961341 62.70091834 343.96514606 65.04410839 C347.22959442 68.34657581 350.49924867 71.6438683 353.7717104 74.9383955 C355.51288793 76.69184001 357.25138547 78.44795058 358.98695087 80.20695019 C359.77464359 81.00117382 360.56233631 81.79539745 361.37389851 82.61368847 C362.41170208 83.66387157 362.41170208 83.66387157 363.47047138 84.7352705 C365.40724223 86.65768763 365.40724223 86.65768763 368.32287312 88.48087597 C368.32287312 89.14087597 368.32287312 89.80087597 368.32287312 90.48087597 C368.89849995 90.73085842 369.47412678 90.98084087 370.06719685 91.23839855 C372.64015322 92.65564101 374.34807033 94.27273829 376.41369343 96.36051464 C377.2084206 97.15862057 378.00314777 97.95672649 378.82195759 98.77901745 C380.09858265 100.07583195 380.09858265 100.07583195 381.40099812 101.39884472 C382.28640278 102.28945095 383.17180744 103.18005718 384.08404255 104.09765148 C386.43865075 106.46706373 388.78912166 108.84041882 391.13726521 111.21622753 C394.4267847 114.54364762 397.72130043 117.86608756 401.018857 121.18554211 C402.77140131 122.9502235 404.52126663 124.71757088 406.26800251 126.48800182 C410.51688591 130.77125641 414.83449246 134.87846196 419.41021442 138.80990124 C424.88995784 143.5972231 429.99851244 148.81030498 435.17101765 153.9239912 C436.61376692 155.34496992 438.06275628 156.75963883 439.51769733 158.16813183 C441.63400659 160.21772772 443.73012433 162.28616867 445.82287312 164.35978222 C446.8023592 165.29752232 446.8023592 165.29752232 447.80163288 166.25420666 C448.39645466 166.85180294 448.99127644 167.44939922 449.60412312 168.06510448 C450.39399616 168.83951633 450.39399616 168.83951633 451.19982624 169.62957287 C452.32287312 171.48087597 452.32287312 171.48087597 452.32287312 177.48087597 C226.27287312 177.48087597 0.22287312 177.48087597 -232.67712688 177.48087597 C-232.67712688 175.50087597 -232.67712688 173.52087597 -232.67712688 171.48087597 C-231.83536907 171.01681347 -230.99361126 170.55275097 -230.12634563 170.07462597 C-194.37554552 150.23176875 -159.90446142 128.28892415 -126.9188261 104.12101269 C-124.58393047 102.41268892 -122.24210483 100.71415624 -119.89978313 99.01603222 C-110.86666438 92.44268719 -102.06324383 85.66812485 -93.44275188 78.56290722 C-89.88497446 75.63367047 -86.25776898 72.80263087 -82.61462688 69.98087597 C-75.70111244 64.59922754 -69.11480463 58.87042738 -62.52966595 53.09513378 C-60.13889918 51.01187734 -57.72253759 48.95975915 -55.30505657 46.90763378 C-48.95247743 41.51059579 -42.77886794 35.95245525 -36.68103313 30.26993847 C-34.10451875 27.86951971 -31.49325952 25.51176466 -28.86462688 23.16837597 C-24.26260769 19.04478451 -19.74741155 14.83182973 -15.23962688 10.60587597 C-14.54055218 9.95062939 -13.84147747 9.2953828 -13.12121868 8.62028027 C-9.60537679 5.39874519 -9.60537679 5.39874519 -6.36628264 1.91251153 C-4.15807117 0.04095288 -2.87310183 0.07053024 0 0 Z " fill="#000000" transform="translate(2020.6771268844604,1360.519124031067)"/>
</svg>
