<svg xmlns:xlink="http://www.w3.org/1999/xlink"  xmlns="http://www.w3.org/2000/svg" width="1rem" height="1rem" fill="none" viewBox="0 0 16 16" class="RyuIconSvg-NEBUC bSdyZv RyuIconSvg RyuIconSvg--groups RyuIconSvg--asSizeM" aria-hidden="true"><path stroke="currentColor" d="M1.333 2.667c0-.737.597-1.334 1.334-1.334h10.666c.737 0 1.334.597 1.334 1.334v2.666c0 .737-.597 1.334-1.334 1.334H2.667a1.333 1.333 0 0 1-1.334-1.334V2.667ZM1.333 10.667c0-.737.597-1.334 1.334-1.334h10.666c.737 0 1.334.597 1.334 1.334v2.666c0 .737-.597 1.334-1.334 1.334H2.667a1.333 1.333 0 0 1-1.334-1.334v-2.666Z"></path></svg>